<?xml version="1.0" encoding="UTF-8"?>
<!DOCTYPE svg PUBLIC "-//W3C//DTD SVG 1.1//EN" "http://www.w3.org/Graphics/SVG/1.1/DTD/svg11.dtd">
<!-- Creator: CorelDRAW 2021.5 -->
<svg xmlns="http://www.w3.org/2000/svg" xml:space="preserve" width="50mm" height="50mm" version="1.1" style="shape-rendering:geometricPrecision; text-rendering:geometricPrecision; image-rendering:optimizeQuality; fill-rule:evenodd; clip-rule:evenodd"
viewBox="0 0 5000 5000"
 xmlns:xlink="http://www.w3.org/1999/xlink"
 xmlns:xodm="http://www.corel.com/coreldraw/odm/2003">
 <defs>
  <style type="text/css">
   <![CDATA[
    .fil0 {fill:#4E73DF}
   ]]>
  </style>
 </defs>
 <g id="Layer_x0020_1">
  <metadata id="CorelCorpID_0Corel-Layer"/>
  <path class="fil0" d="M28.66 794.91l1752.97 0 634.07 770.81 526.31 -766.68 950.76 0c0,0 791.59,6.43 1015.38,735.84 0,0 323.25,961.51 -658.96,1346.93 0,0 -78.74,41.4 -261.09,74.58l-903.48 0 0 799.34 168.66 0 276.22 302.89 0 158.73 -2424.37 0 0 -160.78 270.89 -310.12 177.46 0 0 -975.5 -1524.82 -1976.04zm3059.92 780.38l728.12 0c0,0 373.6,13.63 370.88,373.6 0,0 16.34,291.79 -354.53,338.15l-741.73 0 -2.74 -711.75z"/>
 </g>
</svg>
